ako The Hairdresser's Husband

Delicious movie from Patrice Leconte
  with sexy   Anna Galiena
  and  subtle jean rochefort
 
http://www.imdb.fr/title/tt0100112/


DVDRip
Quality h264 encoding with Luminosity and Contrast enhancements
English subtitles Thanks Dubbing Brothers  


General
Complete name                    : LeMariDeLaCoiffeuse DVDRip h264 Kepler42LMDLC.mp4
Format                           : MPEG-4
Format profile                   : Base Media
Codec ID                         : isom
File size                        : 1.29 GiB
Duration                         : 1h 18mn
Overall bit rate                 : 2 362 Kbps

Video
ID                               : 1
Format                           : AVC
Format/Info                      : Advanced Video Codec
Format profile                   : Main@L3.0
Format settings, CABAC           : Yes
Format settings, ReFrames        : 3 frames
Codec ID                         : avc1
Codec ID/Info                    : Advanced Video Coding
Duration                         : 1h 18mn
Bit rate mode                    : Variable
Bit rate                         : 2 201 Kbps
Width                            : 720 pixels
Height                           : 432 pixels
Display aspect ratio             : 1.667
Frame rate mode                  : Constant
Frame rate                       : 25.000 fps
Standard                         : PAL
Resolution                       : 8 bits
Colorimetry                      : 4:2:0
Scan type                        : Progressive
Bits/(Pixel*Frame)               : 0.283
Stream size                      : 1.20 GiB (93%)
Language                         : French

Audio
ID                               : 2
Format                           : AAC
Format/Info                      : Advanced Audio Codec
Format version                   : Version 4
Format profile                   : LC
Format settings, SBR             : No
Codec ID                         : 40
Duration                         : 1h 18mn
Bit rate mode                    : Constant
Bit rate                         : 160 Kbps
Channel(s)                       : 2 channels
Channel positions                : Front: L R
Sampling rate                    : 48.0 KHz
Stream size                      : 89.4 MiB (7%)
Language                         : French

